<?xml version="1.0" encoding="utf-8"?><svg viewBox="0 0 24 24" xmlns="http://www.w3.org/2000/svg" xmlns:xlink="http://www.w3.org/1999/xlink"><style>:root>svg{display:none}:root>svg:target{display:block}</style><svg fill="none" viewBox="0 0 16 13" id="arrow" xmlns="http://www.w3.org/2000/svg"><g filter="url(#aa)"><path fill="#082242" d="M7.646 7.06a.5.5 0 0 0 .708 0l3.182-3.181a.5.5 0 1 0-.708-.707L8 6 5.172 3.172a.5.5 0 1 0-.708.707L7.646 7.06zM7.5 6v.707h1V6h-1z"/></g><defs><filter id="aa" width="15.363" height="12.182" x=".318" y=".025" color-interpolation-filters="sRGB" filterUnits="userSpaceOnUse"><feFlood flood-opacity="0" result="BackgroundImageFix"/><feColorMatrix in="SourceAlpha" result="hardAlpha" values="0 0 0 0 0 0 0 0 0 0 0 0 0 0 0 0 0 0 127 0"/><feOffset dy="1"/><feGaussianBlur stdDeviation="2"/><feComposite in2="hardAlpha" operator="out"/><feColorMatrix values="0 0 0 0 0 0 0 0 0 0 0 0 0 0 0 0 0 0 0.15 0"/><feBlend in2="BackgroundImageFix" result="effect1_dropShadow_161_4493"/><feBlend in="SourceGraphic" in2="effect1_dropShadow_161_4493" result="shape"/></filter></defs></svg><svg fill="none" viewBox="0 0 24 24" id="search_icon" xmlns="http://www.w3.org/2000/svg"><path stroke="#082242" stroke-linecap="round" stroke-linejoin="round" stroke-width="2" d="M10.5 18a7.5 7.5 0 1 0 0-15 7.5 7.5 0 0 0 0 15zM21 21l-5.2-5.2"/></svg></svg>